<svg width="9" height="35" viewBox="0 0 9 35" fill="none" xmlns="http://www.w3.org/2000/svg">
<path d="M1.16042 34.1258L8.79098 18.3089C8.92499 18.0311 9 17.6585 9 17.2705C9 16.8826 8.92499 16.51 8.79098 16.2321L1.16042 0.409313C1.09799 0.279758 1.02335 0.176788 0.9409 0.106476C0.858452 0.0361633 0.769869 -6.10352e-05 0.680379 -6.10352e-05C0.590888 -6.10352e-05 0.502304 0.0361633 0.419856 0.106476C0.337408 0.176788 0.262769 0.279758 0.200339 0.409313C0.0719032 0.675003 0 1.03168 0 1.40308C0 1.77448 0.0719032 2.13115 0.200339 2.39684L7.37589 17.2705L0.200339 32.1412C0.0723438 32.4068 0.00071907 32.7628 0.00071907 33.1335C0.00071907 33.5042 0.0723438 33.8602 0.200339 34.1258C0.262769 34.2553 0.337408 34.3583 0.419856 34.4286C0.502304 34.4989 0.590888 34.5352 0.680379 34.5352C0.769869 34.5352 0.858452 34.4989 0.9409 34.4286C1.02335 34.3583 1.09799 34.2553 1.16042 34.1258Z" fill="#2D2323"/>
</svg>
