<svg width="50" height="50" viewBox="0 0 50 50" fill="none" xmlns="http://www.w3.org/2000/svg">
<path d="M19.38 15.6761C19.19 15.5652 18.9742 15.5065 18.7542 15.5057C18.5343 15.505 18.3181 15.5623 18.1273 15.6718C17.9366 15.7814 17.7782 15.9393 17.6681 16.1297C17.5579 16.3201 17.4999 16.5361 17.5 16.7561V33.2441C17.4999 33.464 17.5579 33.6801 17.6681 33.8705C17.7782 34.0608 17.9366 34.2188 18.1273 34.3283C18.3181 34.4379 18.5343 34.4952 18.7542 34.4944C18.9742 34.4937 19.19 34.4349 19.38 34.3241L34.078 25.7341C34.2062 25.6592 34.3126 25.552 34.3865 25.4233C34.4604 25.2945 34.4993 25.1486 34.4993 25.0001C34.4993 24.8516 34.4604 24.7057 34.3865 24.5769C34.3126 24.4481 34.2062 24.341 34.078 24.2661L19.381 15.6761H19.38ZM16 16.7561C16 14.6321 18.304 13.3101 20.138 14.3801L34.835 22.9701C36.387 23.8771 36.387 26.1201 34.835 27.0281L20.138 35.6181C18.304 36.6901 16 35.3671 16 33.2441V16.7561Z" fill="#A6A5A5"/>
<circle cx="25" cy="25" r="24.5" stroke="#A6A5A5"/>
</svg>
