<svg width="38" height="38" viewBox="0 0 38 38" fill="none" xmlns="http://www.w3.org/2000/svg">
<path d="M34.5257 15.8984H33.2503V15.8327H19.0003V22.166H27.9485C26.6431 25.8528 23.1352 28.4994 19.0003 28.4994C13.754 28.4994 9.50033 24.2457 9.50033 18.9994C9.50033 13.753 13.754 9.49935 19.0003 9.49935C21.422 9.49935 23.6252 10.4129 25.3028 11.9052L29.7812 7.42677C26.9534 4.79131 23.1708 3.16602 19.0003 3.16602C10.2564 3.16602 3.16699 10.2554 3.16699 18.9994C3.16699 27.7433 10.2564 34.8327 19.0003 34.8327C27.7443 34.8327 34.8337 27.7433 34.8337 18.9994C34.8337 17.9377 34.7244 16.9014 34.5257 15.8984Z" fill="#FFC107"/>
<path d="M4.99219 11.6297L10.1942 15.4448C11.6018 11.9598 15.0107 9.49935 18.9999 9.49935C21.4216 9.49935 23.6249 10.4129 25.3024 11.9052L29.7809 7.42677C26.953 4.79131 23.1704 3.16602 18.9999 3.16602C12.9184 3.16602 7.64427 6.59947 4.99219 11.6297Z" fill="#FF3D00"/>
<path d="M18.9999 34.8329C23.0897 34.8329 26.8058 33.2678 29.6154 30.7226L24.715 26.5758C23.0719 27.8254 21.0642 28.5012 18.9999 28.4996C14.8817 28.4996 11.3849 25.8736 10.0675 22.209L4.9043 26.1871C7.52471 31.3147 12.8463 34.8329 18.9999 34.8329Z" fill="#4CAF50"/>
<path d="M34.5254 15.8997H33.25V15.834H19V22.1673H27.9482C27.3237 23.922 26.1989 25.4552 24.7127 26.5777L24.715 26.5761L29.6155 30.7229C29.2687 31.0379 34.8333 26.9173 34.8333 19.0007C34.8333 17.939 34.7241 16.9027 34.5254 15.8997Z" fill="#1976D2"/>
</svg>
