<svg width="88" height="13" viewBox="0 0 88 13" fill="none" xmlns="http://www.w3.org/2000/svg">
<path d="M0.512063 0.291999H11.3301C13.9221 0.291999 15.2181 1.282 15.2181 3.262C15.2181 4.738 14.4081 5.692 12.7881 6.124C13.7841 6.28 14.4981 6.544 14.9301 6.916C15.5541 7.432 15.8661 8.212 15.8661 9.256C15.8661 10.132 15.6201 10.87 15.1281 11.47C14.6121 12.094 13.9401 12.508 13.1121 12.712C12.2961 12.904 11.3541 13 10.2861 13H0.512063V0.291999ZM5.10206 5.134H9.60206C10.4421 5.134 10.8621 4.798 10.8621 4.126C10.8621 3.478 10.4721 3.154 9.69206 3.154H5.10206V5.134ZM5.06606 7.888V10.102H9.87206C10.8561 10.102 11.3481 9.712 11.3481 8.932C11.3481 8.236 10.9641 7.888 10.1961 7.888H5.06606ZM32.3124 13H27.3624L26.6784 10.93H21.8184L21.1344 13H16.1304L21.6204 0.291999H26.8044L32.3124 13ZM25.7244 8.122L24.2304 3.82L22.7724 8.122H25.7244ZM47.4457 3.01L39.3637 9.994H47.4277V13H32.9557V10.318L41.3797 3.154H33.6397V0.291999H47.4457V3.01ZM64.3925 13H59.4425L58.7585 10.93H53.8985L53.2145 13H48.2105L53.7005 0.291999H58.8845L64.3925 13ZM57.8045 8.122L56.3105 3.82L54.8525 8.122H57.8045ZM71.3132 8.896H64.8872V5.746H71.3132V8.896ZM87.5319 13H82.5099L79.8819 8.374H77.4699V13H72.8979V0.291999H82.2579C83.3139 0.291999 84.1899 0.399999 84.8859 0.616C85.5819 0.832 86.1639 1.306 86.6319 2.038C87.0639 2.734 87.2799 3.496 87.2799 4.324C87.2799 4.54 87.2679 4.75 87.2439 4.954C87.2199 5.158 87.1479 5.428 87.0279 5.764C86.9199 6.088 86.7639 6.382 86.5599 6.646C86.3679 6.91 86.0799 7.162 85.6959 7.402C85.3239 7.642 84.8799 7.816 84.3639 7.924L87.5319 13ZM77.4699 3.172V5.512H80.8899C81.7059 5.512 82.2399 5.362 82.4919 5.062C82.6599 4.858 82.7439 4.618 82.7439 4.342C82.7439 4.09 82.6779 3.874 82.5459 3.694C82.3059 3.346 81.8739 3.172 81.2499 3.172H77.4699Z" fill="white"/>
</svg>
